<svg width="32" height="32" viewBox="0 0 32 32" fill="none" xmlns="http://www.w3.org/2000/svg">
<path d="M0 1.16667C0 2.23333 0.0659794 2.33333 0.956701 2.33333C1.78144 2.33333 1.94639 2.46667 2.04536 3.23333C2.11134 4 2.30928 4.2 3.23299 4.26667C4.1567 4.36667 4.28866 4.5 4.28866 5.36667C4.28866 6.23333 4.38763 6.33333 5.27835 6.33333C6.20206 6.33333 6.26804 6.43333 6.26804 7.5C6.26804 8.56667 6.20206 8.66667 5.27835 8.66667C4.38763 8.66667 4.28866 8.76667 4.28866 9.63333C4.28866 10.5 4.1567 10.6333 3.23299 10.7333C2.14433 10.8333 2.14433 10.8333 2.04536 12.9L1.94639 15H3.13402H4.28866V12.8333V10.6667H5.27835C6.16907 10.6667 6.26804 10.5667 6.26804 9.66667V8.66667H8.41237H10.5567V7.5V6.33333H15.8351H21.1134V7.5V8.66667H23.2577H25.4021V9.66667C25.4021 10.6 25.501 10.6667 26.5567 10.6667H27.7113V12.8333V15H28.701H29.6907V12.8333V10.6667H28.701C27.8103 10.6667 27.7113 10.5667 27.7113 9.66667C27.7113 8.73333 27.6124 8.66667 26.5567 8.66667C25.468 8.66667 25.4021 8.6 25.4021 7.5C25.4021 6.4 25.468 6.33333 26.5567 6.33333C27.6124 6.33333 27.7113 6.26667 27.7113 5.33333C27.7113 4.43333 27.8103 4.33333 28.701 4.33333C29.5918 4.33333 29.6907 4.23333 29.6907 3.36667C29.6907 2.5 29.8227 2.36667 30.7794 2.26667C31.7031 2.16667 31.835 2.03333 31.934 1.06667C32.033 0.0333326 32 -7.82311e-07 30.8783 -7.82311e-07C29.7897 -7.82311e-07 29.6907 0.0666659 29.6907 0.999999C29.6907 1.9 29.5918 2 28.701 2C27.7773 2 27.7113 2.1 27.7113 3.16667C27.7113 4.26667 27.6454 4.33333 26.5567 4.33333C25.501 4.33333 25.4021 4.4 25.4021 5.33333V6.33333H23.2577H21.1134V5.33333V4.33333H15.8351H10.5567V5.33333V6.33333H8.41237H6.26804V5.33333C6.26804 4.43333 6.16907 4.33333 5.31134 4.33333C4.45361 4.33333 4.32165 4.2 4.22268 3.23333C4.1567 2.33333 3.95876 2.13333 3.23299 2.06667C2.44124 1.96667 2.30928 1.8 2.30928 0.966666C2.30928 0.0666659 2.21031 -7.82311e-07 1.15464 -7.82311e-07C0.0659794 -7.82311e-07 0 0.0666659 0 1.16667Z" fill="black"/>
<path d="M8.51134 11.7333C8.41237 12.7 8.28041 12.8333 7.32371 12.9333L6.23505 13.0333L6.33402 15.1L6.43299 17.1667L15.934 17.2667L25.4021 17.3333V15.1667V13H24.4124C23.4887 13 23.4227 12.9 23.4227 11.8333V10.6667H16.033H8.61031L8.51134 11.7333ZM12.866 14C12.866 14.9333 12.767 15 11.7113 15C10.6557 15 10.5567 14.9333 10.5567 14C10.5567 13.0667 10.6557 13 11.7113 13C12.767 13 12.866 13.0667 12.866 14ZM21.1134 14C21.1134 14.9 21.0144 15 20.1237 15C19.233 15 19.134 14.9 19.134 14C19.134 13.1 19.233 13 20.1237 13C21.0144 13 21.1134 13.1 21.1134 14Z" fill="black"/>
<path d="M2.30928 21.8333C2.30928 22.9333 2.2433 23 1.15464 23H0V27.5V32H1.15464H2.30928V29.6667V27.3333H4.45361H6.59794V29.6667V32H7.75258H8.90722V27.5V23H7.91753C6.99381 23 6.92783 22.9 6.92783 21.8333V20.6667H4.61856H2.30928V21.8333ZM6.59794 24V25H4.45361H2.30928V24V23H4.45361H6.59794V24Z" fill="black"/>
<path d="M13.5258 21.8333C13.5258 22.9 13.4598 23 12.5361 23H11.5464V26.3333V29.6667H12.5361C13.4598 29.6667 13.5258 29.7667 13.5258 30.8333V32H15.8351H18.1443V30.8333C18.1443 29.7333 18.2103 29.6667 19.299 29.6667H20.4536V27.3333V24.9667L18.2433 25.0667L16 25.1667L15.901 26.2333C15.8021 27.3 15.8351 27.3333 16.9567 27.3333C18.0784 27.3333 18.1443 27.4 18.1443 28.5V29.6667H16H13.8557V26.3333V23H17.1546H20.4536V21.8333V20.6667H16.9897H13.5258V21.8333Z" fill="black"/>
<path d="M22.8289 21.7333L22.9278 22.8333L26.3258 22.9333L29.6907 23.0333V24C29.6907 24.9667 29.6907 24.9667 27.4804 25.0667L25.2371 25.1667L25.1381 26.2333C25.0392 27.1667 24.9072 27.3 23.9835 27.4L22.9278 27.5L22.8289 29.7333L22.7299 32H27.3814H32V30.8333V29.6667H28.5361H25.0722V28.5V27.3333H27.3814H29.6907V26.3667C29.6907 25.5 29.8227 25.3667 30.7794 25.2667C31.7031 25.1667 31.8351 25.0333 31.934 24.0667C32.033 23.0333 32 23 30.8783 23C29.7567 23 29.6907 22.9333 29.6907 21.8333V20.6667H26.1938H22.7299L22.8289 21.7333Z" fill="black"/>
</svg>
