<svg xmlns="http://www.w3.org/2000/svg" width="32" height="32" fill="none"><g fill="#fff" clip-path="url(#a)"><path d="M32 0h-2.142v2.142H32V0Zm-2.142 10.667H27.73v4.269h2.128v-4.27Zm0-8.525H27.73v2.127h2.128V2.142ZM27.73 8.539h-2.127v2.128h2.127V8.539Zm0-4.269h-2.127v2.14h2.127V4.27Zm-2.127 2.141h-4.27V8.54h4.27V6.41Zm-4.27-2.141H10.667v2.14h10.666V4.27Zm4.27 12.794v-4.256H23.46v-2.141H8.54v2.141H6.397v4.256h19.206Zm-6.397-4.256h2.127v2.128h-2.127v-2.128Zm-8.54 0h2.128v2.128h-2.127v-2.128Zm.001-6.397h-4.27V8.54h4.27V6.41Zm-4.27 2.128H4.27v2.128h2.127V8.539Zm0-4.269H4.27v2.14h2.127V4.27ZM4.27 10.667H2.142v4.269H4.27v-4.27Zm0-8.525H2.142v2.127H4.27V2.142ZM2.142 0H0v2.142h2.142V0Zm27.593 25.017v-2.265h-6.794v-2.265h6.794v2.265H32v2.265h-2.265Zm-4.53 2.265v-2.265h4.53v2.265h-4.53Zm-2.264 4.53v-4.53h2.265v2.264H32v2.265h-9.06Zm-9.206-9.06v-2.265h6.795v2.265h-6.795Zm-2.264 6.794v-6.794h2.264v6.794h-2.264Zm6.794 0v-2.264H16v-2.265h4.53v4.53h-2.265Zm-4.53 2.265v-2.265h4.53v2.265h-4.53ZM0 31.811v-9.059h2.265v-2.265h4.53v2.265h2.264v9.06H6.794v-4.53h-4.53v4.53H0Zm2.265-6.794h4.53v-2.174h-4.53v2.174Z"/></g><defs><clipPath id="a"><path fill="#fff" d="M0 0h32v32H0z"/></clipPath></defs></svg>
